<svg width="2026" height="1612" xmlns="http://www.w3.org/2000/svg" xmlns:xlink="http://www.w3.org/1999/xlink" xml:space="preserve" overflow="hidden"><defs><linearGradient x1="2200" y1="379" x2="2200" y2="1509" gradientUnits="userSpaceOnUse" spreadMethod="reflect" id="fill0"><stop offset="0" stop-color="#1FE5DC"/><stop offset="0.5" stop-color="#006B7A"/><stop offset="1" stop-color="#00132A"/></linearGradient><linearGradient x1="1187" y1="1792" x2="2329" y2="1792" gradientUnits="userSpaceOnUse" spreadMethod="reflect" id="fill1"><stop offset="0" stop-color="#003E4E"/><stop offset="0.0238095" stop-color="#003D4D"/><stop offset="0.047619" stop-color="#003D4D"/><stop offset="0.0714286" stop-color="#003D4D"/><stop offset="0.0952381" stop-color="#003D4D"/><stop offset="0.119048" stop-color="#003D4D"/><stop offset="0.142857" stop-color="#003C4D"/><stop offset="0.166667" stop-color="#003C4C"/><stop offset="0.190476" stop-color="#003C4C"/><stop offset="0.214286" stop-color="#003B4B"/><stop offset="0.238095" stop-color="#003B4B"/><stop offset="0.261905" stop-color="#003A4B"/><stop offset="0.285714" stop-color="#00394A"/><stop offset="0.309524" stop-color="#00394A"/><stop offset="0.333333" stop-color="#003849"/><stop offset="0.357143" stop-color="#003748"/><stop offset="0.380952" stop-color="#003648"/><stop offset="0.404762" stop-color="#003647"/><stop offset="0.428571" stop-color="#003546"/><stop offset="0.452381" stop-color="#003445"/><stop offset="0.47619" stop-color="#003345"/><stop offset="0.5" stop-color="#003244"/><stop offset="0.52381" stop-color="#003143"/><stop offset="0.547619" stop-color="#003042"/><stop offset="0.571429" stop-color="#002E41"/><stop offset="0.595238" stop-color="#002D40"/><stop offset="0.619048" stop-color="#002C3F"/><stop offset="0.642857" stop-color="#002B3E"/><stop offset="0.666667" stop-color="#00293D"/><stop offset="0.690476" stop-color="#00283C"/><stop offset="0.714286" stop-color="#00273A"/><stop offset="0.738095" stop-color="#002539"/><stop offset="0.761905" stop-color="#002438"/><stop offset="0.785714" stop-color="#002237"/><stop offset="0.809524" stop-color="#002135"/><stop offset="0.833333" stop-color="#001F34"/><stop offset="0.857143" stop-color="#001D33"/><stop offset="0.880952" stop-color="#001C31"/><stop offset="0.904762" stop-color="#001A30"/><stop offset="0.928571" stop-color="#00182E"/><stop offset="0.952381" stop-color="#00162D"/><stop offset="0.97619" stop-color="#00142B"/><stop offset="1" stop-color="#00132A"/></linearGradient><linearGradient x1="2702.25" y1="1477.04" x2="2922.75" y2="2028.96" gradientUnits="userSpaceOnUse" spreadMethod="reflect" id="fill2"><stop offset="0" stop-color="#1FE5DC"/><stop offset="0.5" stop-color="#04717A"/><stop offset="1" stop-color="#004251"/></linearGradient></defs><g transform="translate(-1187 -379)"><path d="M2228.6 1380.59C2229.25 1383.03 2229.73 1385.59 2229.73 1388.27L2229.73 1479.25C2229.73 1495.67 2216.41 1509 2200 1509 2183.59 1509 2170.27 1495.67 2170.27 1479.25L2170.27 1388.27C2170.27 1387.37 2170.45 1386.54 2170.51 1385.65 2180.08 1383.51 2189.95 1382.32 2200 1382.32L2200 1382.26C2209.69 1382.26 2219.2 1381.66 2228.6 1380.59ZM2310.65 1187.84 2310.34 1190.28C2308.1 1199.2 2304.78 1207.85 2300.46 1216.09L2295.27 1223.69 2230.02 1223.69 2227.96 1223.69 2226.52 1230.82C2222.62 1240.06 2213.48 1246.54 2202.83 1246.54L2197.17 1246.54C2186.52 1246.54 2177.38 1240.06 2173.47 1230.82L2172.04 1223.69 2169.98 1223.69 2104.73 1223.69 2099.54 1216.09C2095.21 1207.85 2091.89 1199.2 2089.66 1190.28L2089.35 1187.84 2169.98 1187.84 2230.02 1187.84ZM2197.17 1091.05 2202.83 1091.05C2213.48 1091.05 2222.62 1097.53 2226.52 1106.76L2227.96 1113.89 2230.02 1113.9 2295.27 1113.9 2300.46 1121.49C2304.78 1129.73 2308.1 1138.38 2310.34 1147.3L2310.64 1149.74 2230.02 1149.74 2169.98 1149.74 2089.35 1149.74 2089.66 1147.3C2091.89 1138.38 2095.21 1129.73 2099.54 1121.49L2104.73 1113.9 2169.98 1113.9 2172.04 1113.89 2173.47 1106.76C2177.38 1097.53 2186.52 1091.05 2197.17 1091.05ZM2336.36 1028.33C2378.51 1063.37 2403.13 1113.36 2403.13 1166.32 2403.13 1268.96 2311.98 1352.5 2199.97 1352.5 2165.96 1352.5 2133.02 1363.22 2107.1 1382.61 2101.75 1386.66 2095.51 1388.56 2089.32 1388.56 2080.29 1388.56 2071.31 1384.46 2065.48 1376.66 2055.67 1363.51 2058.35 1344.83 2071.49 1335.01 2107.58 1307.94 2153.24 1293.06 2199.97 1293.06 2279.22 1293.06 2343.67 1236.23 2343.67 1166.38 2343.67 1125.56 2321.14 1087 2283.33 1063.2 2280.71 1061.53 2278.63 1059.51 2276.73 1057.3 2298.19 1050.28 2318.29 1040.52 2336.36 1028.33ZM2056.72 985.34 2056.74 985.364 2056.68 985.362ZM2089.35 872.835 2169.98 872.836 2230.02 872.835 2310.65 872.836 2310.34 875.276C2308.1 884.195 2304.78 892.845 2300.46 901.086L2295.27 908.684 2230.02 908.684 2227.96 908.684 2226.52 915.814C2222.62 925.051 2213.48 931.531 2202.83 931.531L2197.17 931.532C2186.52 931.532 2177.38 925.051 2173.47 915.814L2172.04 908.684 2169.98 908.684 2104.73 908.683 2099.54 901.086C2095.21 892.844 2091.89 884.195 2089.66 875.277ZM2197.17 776.041 2202.83 776.042C2213.48 776.041 2222.62 782.523 2226.52 791.758L2227.96 798.889 2230.02 798.889 2295.27 798.89 2300.46 806.486C2304.78 814.728 2308.11 823.379 2310.34 832.297L2310.65 834.738 2230.02 834.738 2169.98 834.737 2089.35 834.738 2089.66 832.296C2091.89 823.378 2095.21 814.728 2099.54 806.487L2104.73 798.89 2169.98 798.889 2172.04 798.89 2173.47 791.758C2177.38 782.522 2186.52 776.041 2197.17 776.041ZM2200.09 667.255 2200.19 667.275 2240.86 671.045C2333.34 688.44 2403.13 763.63 2403.13 853.443 2403.13 943.257 2333.35 1018.45 2240.86 1035.84L2200.08 1039.62 2200.03 1039.63C2120.78 1039.63 2056.33 1096.46 2056.33 1166.32 2056.33 1203.57 2074.82 1238.79 2107.1 1262.95 2110.43 1265.45 2113.05 1268.54 2115.01 1271.94 2095.09 1278.96 2076.13 1288.42 2058.82 1300.2 2019.29 1265.15 1996.87 1217.25 1996.87 1166.32 1996.87 1076.5 2066.65 1001.31 2159.14 983.917L2199.92 980.138 2199.97 980.128C2279.22 980.127 2343.67 923.301 2343.67 853.443 2343.67 792.317 2294.33 741.17 2228.9 729.338L2200.03 726.764 2171.16 729.337C2105.73 741.169 2056.39 792.317 2056.39 853.443 2056.39 890.692 2074.88 925.919 2107.16 950.077 2109.6 951.922 2111.56 954.124 2113.28 956.504 2103.12 960.134 2093.28 964.389 2083.82 969.216L2056.72 985.34 2031.27 957.095C2009.07 926.811 1996.93 890.931 1996.93 853.443 1996.93 763.629 2066.71 688.44 2159.2 671.046L2199.87 667.275 2199.97 667.255 2200.03 667.261ZM1869.52 667.255C1895.43 667.255 1916.43 688.274 1916.43 714.204 1916.43 733.65 1904.62 750.337 1887.78 757.463L1883.4 758.349 1883.4 804.36 1886.77 805.039C1902.66 811.768 1913.82 827.523 1913.82 845.886 1913.82 864.248 1902.66 880.003 1886.76 886.733L1883.4 887.413 1883.4 961.227 1937.04 961.226 1940.07 956.727C1945.86 950.935 1953.86 947.352 1962.69 947.351 1980.35 947.351 1994.68 961.684 1994.68 979.365 1994.68 997.046 1980.35 1011.38 1962.69 1011.38 1953.86 1011.38 1945.86 1007.79 1940.07 1002L1937.04 997.503 1883.4 997.503 1883.4 1076.65 1890.4 1078.06C1909.65 1086.21 1923.15 1105.29 1923.15 1127.52 1923.15 1149.75 1909.65 1168.83 1890.4 1176.97L1883.4 1178.39 1883.4 1249.27C1883.4 1255.03 1879.91 1259.96 1874.92 1262.07L1869.52 1263.16 1869.52 1263.16 1864.12 1262.07C1859.14 1259.96 1855.65 1255.02 1855.65 1249.27L1855.65 1178.39 1848.65 1176.97C1829.4 1168.83 1815.89 1149.75 1815.89 1127.52 1815.9 1105.29 1829.4 1086.21 1848.65 1078.06L1855.65 1076.65 1855.65 887.412 1852.28 886.733C1836.38 880.003 1825.23 864.249 1825.23 845.886 1825.23 827.524 1836.38 811.769 1852.28 805.039L1855.65 804.36 1855.65 758.349 1851.26 757.463C1834.43 750.336 1822.61 733.65 1822.61 714.204 1822.61 688.274 1843.62 667.254 1869.52 667.255ZM2530.48 667.254C2556.38 667.254 2577.39 688.275 2577.39 714.203 2577.39 733.651 2565.57 750.336 2548.74 757.463L2544.35 758.349 2544.35 804.359 2547.72 805.039C2563.61 811.768 2574.77 827.524 2574.77 845.886 2574.77 864.248 2563.62 880.003 2547.72 886.733L2544.35 887.413 2544.35 1075.89 2551.35 1078.06C2570.6 1086.21 2584.1 1105.29 2584.1 1127.52 2584.1 1149.75 2570.6 1168.83 2551.35 1176.97L2544.35 1179.15 2544.35 1249.27C2544.35 1255.02 2540.86 1259.96 2535.88 1262.07L2530.48 1263.16 2525.08 1262.07C2520.09 1259.96 2516.6 1255.02 2516.6 1249.27L2516.6 1179.15 2509.6 1176.97C2490.35 1168.83 2476.85 1149.75 2476.85 1127.52 2476.85 1105.29 2490.35 1086.21 2509.6 1078.06L2516.6 1075.89 2516.6 997.503 2462.96 997.503 2459.93 1002C2454.14 1007.79 2446.14 1011.38 2437.31 1011.38 2419.64 1011.38 2405.32 997.045 2405.32 979.365 2405.32 961.684 2419.64 947.352 2437.31 947.351 2446.14 947.352 2454.14 950.934 2459.93 956.728L2462.96 961.227 2516.6 961.227 2516.6 887.413 2513.24 886.733C2497.34 880.003 2486.18 864.249 2486.18 845.886 2486.18 827.524 2497.34 811.769 2513.24 805.039L2516.6 804.359 2516.6 758.348 2512.22 757.463C2495.38 750.336 2483.57 733.65 2483.57 714.203 2483.57 688.275 2504.57 667.255 2530.48 667.254ZM1974.76 558.66C1999.02 558.66 2018.7 578.347 2018.7 602.633 2018.7 626.92 1999.02 646.607 1974.76 646.607 1950.49 646.607 1930.82 626.919 1930.82 602.633 1930.82 578.347 1950.49 558.66 1974.76 558.66ZM2425.24 558.66C2449.51 558.66 2469.18 578.348 2469.18 602.633 2469.18 626.919 2449.51 646.607 2425.24 646.606 2400.97 646.607 2381.3 626.919 2381.3 602.633 2381.3 578.347 2400.98 558.659 2425.24 558.66ZM2200 390.561C2260.48 390.561 2309.52 439.633 2309.52 500.167 2309.52 560.701 2260.48 609.774 2200 609.774 2139.52 609.773 2090.48 560.701 2090.48 500.167 2090.48 439.633 2139.52 390.561 2200 390.561ZM2355.35 379.049C2359.21 378.827 2363.17 379.358 2367.03 380.742 2600.28 464.167 2757 683.618 2757 926.811 2757 1170 2600.28 1389.4 2366.97 1472.82 2363.7 1474.01 2360.32 1474.55 2356.99 1474.55L2356.99 1474.61C2344.8 1474.61 2333.32 1466.99 2328.98 1454.85 2323.45 1439.38 2331.54 1422.36 2347 1416.83 2530.48 1351.23 2661.26 1192.27 2691.08 1007.42L2693.18 990.055 2627.57 990.055C2614.26 990.055 2603.47 979.253 2603.47 965.927 2603.47 952.602 2614.26 941.799 2627.57 941.799L2696.68 941.799 2696.94 941.851 2697.54 926.812C2697.54 708.67 2556.7 511.77 2347.06 436.795 2331.6 431.261 2323.51 414.243 2329.04 398.772 2333.19 387.169 2343.79 379.715 2355.35 379.049ZM2044.64 379.049C2056.21 379.715 2066.81 387.168 2070.96 398.772 2076.49 414.243 2068.4 431.261 2052.94 436.795 1843.3 511.771 1702.45 708.67 1702.45 926.811L1703.06 941.851 1703.32 941.8 1772.43 941.8C1785.74 941.799 1796.53 952.602 1796.53 965.927 1796.53 979.253 1785.74 990.056 1772.43 990.055L1706.82 990.056 1708.92 1007.42C1738.74 1192.27 1869.52 1351.23 2053 1416.83 2068.46 1422.36 2076.54 1439.38 2071.02 1454.85 2066.68 1466.99 2055.2 1474.61 2043.01 1474.61L2043.01 1474.55C2039.68 1474.55 2036.29 1474.01 2033.02 1472.82 1799.72 1389.4 1643 1170 1643 926.812 1643 683.619 1799.72 464.167 2032.96 380.742 2036.83 379.359 2040.79 378.827 2044.64 379.049Z" fill="url(#fill0)" fill-rule="evenodd"/><path d="M1983.03 1719.3C1972.51 1719.3 1963.78 1720.54 1956.85 1723.04 1949.93 1725.53 1944.39 1729.27 1940.23 1734.25 1936.07 1739.24 1933.03 1745.4 1931.09 1752.74 1929.15 1760.08 1928.04 1768.6 1927.76 1778.29L2028.75 1770.81C2028.75 1763.89 2028.26 1757.31 2027.29 1751.08 2026.32 1744.85 2024.18 1739.38 2020.85 1734.67 2017.53 1729.96 2012.89 1726.22 2006.93 1723.45 2000.97 1720.68 1993.01 1719.3 1983.03 1719.3ZM1715.61 1719.3C1703.98 1719.3 1694.83 1721.37 1688.18 1725.53 1681.53 1729.68 1676.41 1735.15 1672.81 1741.94 1669.21 1748.72 1666.92 1756.62 1665.95 1765.62 1664.98 1774.62 1664.5 1783.97 1664.5 1793.66 1664.5 1804.19 1665.05 1813.95 1666.16 1822.95 1667.27 1831.95 1669.62 1839.92 1673.22 1846.84 1676.82 1853.76 1681.95 1859.16 1688.6 1863.04 1695.25 1866.92 1704.25 1868.86 1715.61 1868.86 1727.52 1868.86 1737.29 1867.2 1744.91 1863.87 1752.53 1860.55 1758.48 1855.63 1762.78 1849.12 1767.07 1842.62 1769.98 1834.72 1771.51 1825.44 1773.03 1816.17 1773.79 1805.57 1773.79 1793.66 1773.79 1782.31 1773.03 1772.06 1771.51 1762.92 1769.98 1753.78 1767.07 1745.95 1762.78 1739.45 1758.48 1732.94 1752.53 1727.95 1744.91 1724.49 1737.29 1721.03 1727.52 1719.3 1715.61 1719.3ZM1507.41 1683.57 1559.36 1683.57 1559.36 1907.91 1507.41 1907.91ZM2254.2 1679.41C2268.33 1679.41 2280.17 1681.08 2289.73 1684.4 2299.29 1687.72 2306.97 1692.57 2312.79 1698.94 2318.61 1705.31 2322.77 1713.13 2325.26 1722.41 2327.75 1731.69 2329 1742.28 2329 1754.19L2329 1907.91 2277.05 1907.91 2277.05 1768.73C2277.05 1752.95 2274.56 1741.32 2269.57 1733.84 2264.59 1726.36 2254.2 1722.62 2238.4 1722.62 2225.11 1722.62 2213.82 1725.04 2204.54 1729.89 2195.25 1734.74 2188.26 1744.22 2183.55 1758.35L2183.55 1907.91 2131.6 1907.91 2131.6 1683.57 2183.55 1683.57 2183.55 1711.82C2189.92 1700.19 2199.41 1691.88 2212.02 1686.89 2224.62 1681.91 2238.68 1679.41 2254.2 1679.41ZM1983.03 1679.41C2002.43 1679.41 2018.22 1681.98 2030.41 1687.1 2042.6 1692.22 2052.16 1699.22 2059.08 1708.08 2066.01 1716.94 2070.72 1727.19 2073.21 1738.82 2075.71 1750.46 2076.95 1762.92 2076.95 1776.21 2076.95 1781.75 2076.75 1787.08 2076.33 1792.21 2075.91 1797.33 2075.43 1801.83 2074.88 1805.71L1927.76 1815.27C1928.32 1834.1 1933.58 1847.95 1943.55 1856.81 1953.53 1865.67 1969.74 1870.1 1992.18 1870.1 1998.83 1870.1 2005.68 1869.69 2012.75 1868.86 2019.81 1868.03 2026.6 1866.85 2033.11 1865.33 2039.62 1863.8 2045.65 1862.14 2051.19 1860.34 2056.73 1858.54 2061.44 1856.67 2065.32 1854.73L2065.32 1897.11C2058.67 1900.99 2047.86 1904.45 2032.9 1907.49 2017.94 1910.54 2001.32 1912.06 1983.03 1912.06 1965.86 1912.06 1950.62 1910.26 1937.32 1906.66 1924.02 1903.06 1912.8 1896.83 1903.66 1887.97 1894.52 1879.11 1887.52 1867.2 1882.67 1852.24 1877.82 1837.28 1875.4 1818.45 1875.4 1795.74 1875.4 1773.03 1877.82 1754.19 1882.67 1739.24 1887.52 1724.28 1894.52 1712.37 1903.66 1703.51 1912.8 1694.65 1924.02 1688.41 1937.32 1684.81 1950.62 1681.21 1965.86 1679.41 1983.03 1679.41ZM1702.31 1679.41C1712.84 1679.41 1721.98 1680.31 1729.74 1682.11 1737.5 1683.91 1744.15 1686.41 1749.69 1689.59 1755.23 1692.78 1759.73 1696.65 1763.19 1701.22 1766.66 1705.79 1769.5 1710.85 1771.71 1716.39L1771.71 1683.57 1823.25 1683.57 1823.25 1890.88C1823.25 1906.39 1821.1 1920.3 1816.8 1932.63 1812.51 1944.95 1805.65 1955.48 1796.23 1964.2 1786.81 1972.93 1774.55 1979.58 1759.45 1984.15 1744.36 1988.71 1725.86 1991 1703.98 1991 1694 1991 1683.47 1990.45 1672.39 1989.34 1661.31 1988.23 1651.61 1986.98 1643.3 1985.6L1643.3 1943.64C1651.89 1945.85 1661.24 1947.45 1671.35 1948.42 1681.46 1949.39 1691.37 1949.87 1701.07 1949.87 1725.72 1949.87 1743.66 1945.3 1754.88 1936.16 1766.1 1927.02 1771.71 1911.1 1771.71 1888.38L1771.71 1872.6C1767 1883.68 1759.45 1892.33 1749.07 1898.56 1738.68 1904.79 1723.09 1907.91 1702.31 1907.91 1684.03 1907.91 1668.93 1905.14 1657.02 1899.6 1645.1 1894.06 1635.68 1886.31 1628.76 1876.34 1621.83 1866.37 1617.05 1854.39 1614.42 1840.4 1611.79 1826.41 1610.47 1810.83 1610.47 1793.66 1610.47 1778.15 1611.79 1763.47 1614.42 1749.62 1617.05 1735.78 1621.83 1723.66 1628.76 1713.27 1635.68 1702.89 1645.1 1694.65 1657.02 1688.55 1668.93 1682.46 1684.03 1679.41 1702.31 1679.41ZM1328.71 1668.2 1286.74 1785.77 1374.84 1785.77 1333.7 1668.2ZM1295.05 1619.59 1368.19 1619.59 1475.41 1907.91 1417.64 1907.91 1391.05 1831.47 1270.53 1831.47 1243.1 1907.91 1187 1907.91ZM1533.59 1593C1539.41 1593 1544.19 1593.28 1547.93 1593.83 1551.67 1594.38 1554.71 1595.56 1557.07 1597.36 1559.42 1599.16 1561.02 1601.93 1561.85 1605.67 1562.68 1609.41 1563.1 1614.46 1563.1 1620.83 1563.1 1627.21 1562.68 1632.19 1561.85 1635.79 1561.02 1639.39 1559.42 1642.23 1557.07 1644.31 1554.71 1646.39 1551.67 1647.7 1547.93 1648.25 1544.19 1648.81 1539.41 1649.09 1533.59 1649.09 1527.77 1649.09 1522.99 1648.81 1519.25 1648.25 1515.51 1647.7 1512.46 1646.39 1510.11 1644.31 1507.75 1642.23 1506.16 1639.39 1505.33 1635.79 1504.5 1632.19 1504.08 1627.21 1504.08 1620.83 1504.08 1614.46 1504.5 1609.41 1505.33 1605.67 1506.16 1601.93 1507.75 1599.16 1510.11 1597.36 1512.46 1595.56 1515.51 1594.38 1519.25 1593.83 1522.99 1593.28 1527.77 1593 1533.59 1593Z" fill="url(#fill1)" fill-rule="evenodd"/><path d="M3106.23 1720.17C3094.59 1720.17 3085.45 1722.25 3078.81 1726.4 3072.16 1730.56 3067.04 1736.17 3063.44 1743.23 3059.83 1750.3 3057.55 1758.47 3056.58 1767.75 3055.61 1777.03 3055.13 1786.66 3055.13 1796.64 3055.13 1807.44 3055.68 1817.48 3056.79 1826.77 3057.9 1836.05 3060.25 1844.08 3063.85 1850.87 3067.45 1857.66 3072.58 1862.99 3079.22 1866.87 3085.87 1870.75 3094.87 1872.69 3106.23 1872.69 3117.58 1872.69 3127 1870.96 3134.48 1867.49 3141.96 1864.03 3147.84 1859.11 3152.14 1852.74 3156.43 1846.37 3159.41 1838.47 3161.07 1829.05 3162.73 1819.63 3163.56 1808.83 3163.56 1796.64 3163.56 1785.28 3162.73 1774.89 3161.07 1765.47 3159.41 1756.05 3156.36 1748.01 3151.93 1741.36 3147.5 1734.71 3141.61 1729.52 3134.27 1725.78 3126.93 1722.04 3117.58 1720.17 3106.23 1720.17ZM2864.64 1720.17C2854.11 1720.17 2845.39 1721.42 2838.47 1723.91 2831.54 1726.4 2826 1730.14 2821.85 1735.13 2817.69 1740.12 2814.65 1746.28 2812.71 1753.62 2810.77 1760.97 2809.66 1769.48 2809.38 1779.18L2910.34 1771.7C2910.34 1764.77 2909.86 1758.19 2908.89 1751.96 2907.92 1745.73 2905.77 1740.26 2902.45 1735.55 2899.12 1730.84 2894.48 1727.1 2888.53 1724.32 2882.57 1721.55 2874.61 1720.17 2864.64 1720.17ZM2864.64 1680.27C2884.03 1680.27 2899.81 1682.84 2912 1687.96 2924.19 1693.09 2933.74 1700.08 2940.67 1708.95 2947.59 1717.81 2952.3 1728.06 2954.79 1739.7 2957.29 1751.34 2958.53 1763.81 2958.53 1777.1 2958.53 1782.64 2958.33 1787.98 2957.91 1793.1 2957.49 1798.23 2957.01 1802.73 2956.46 1806.61L2809.38 1816.17C2809.94 1835.01 2815.2 1848.86 2825.17 1857.73 2835.14 1866.59 2851.35 1871.03 2873.78 1871.03 2880.43 1871.03 2887.28 1870.61 2894.34 1869.78 2901.41 1868.95 2908.19 1867.77 2914.7 1866.25 2921.21 1864.72 2927.24 1863.06 2932.77 1861.26 2938.31 1859.46 2943.02 1857.59 2946.9 1855.65L2946.9 1898.04C2940.25 1901.92 2929.45 1905.38 2914.49 1908.43 2899.54 1911.48 2882.92 1913 2864.64 1913 2847.47 1913 2832.23 1911.2 2818.94 1907.6 2805.65 1904 2794.43 1897.76 2785.29 1888.9 2776.15 1880.03 2769.15 1868.12 2764.31 1853.16 2759.46 1838.19 2757.04 1819.35 2757.04 1796.64 2757.04 1773.92 2759.46 1755.08 2764.31 1740.12 2769.15 1725.16 2776.15 1713.24 2785.29 1704.38 2794.43 1695.51 2805.65 1689.28 2818.94 1685.68 2832.23 1682.07 2847.47 1680.27 2864.64 1680.27ZM2412 1620.43 2500.08 1620.43 2556.58 1790.82 2559.07 1790.82 2617.24 1620.43 2702.82 1620.43 2702.82 1908.84 2649.23 1908.84 2649.23 1673.62 2646.73 1673.62 2584.83 1850.66 2529.16 1850.66 2467.67 1673.62 2465.18 1673.62 2465.18 1908.84 2412 1908.84ZM3161.48 1593 3213 1593 3213 1908.84 3166.88 1908.84 3161.9 1876.01C3157.47 1886.82 3149.78 1895.68 3138.84 1902.61 3127.9 1909.54 3112.32 1913 3092.1 1913 3073.82 1913 3058.8 1910.23 3047.03 1904.69 3035.25 1899.15 3025.98 1891.32 3019.19 1881.21 3012.4 1871.1 3007.7 1858.84 3005.06 1844.43 3002.43 1830.02 3001.12 1814.09 3001.12 1796.64 3001.12 1780.84 3002.43 1765.88 3005.06 1751.75 3007.7 1737.62 3012.4 1725.29 3019.19 1714.77 3025.98 1704.24 3035.25 1695.86 3047.03 1689.62 3058.8 1683.39 3073.82 1680.27 3092.1 1680.27 3102.63 1680.27 3111.7 1681.1 3119.31 1682.77 3126.93 1684.43 3133.51 1686.85 3139.05 1690.04 3144.59 1693.22 3149.16 1697.03 3152.76 1701.47 3156.36 1705.9 3159.27 1710.89 3161.48 1716.43Z" fill="url(#fill2)" fill-rule="evenodd"/></g></svg>